<?xml version="1.0" standalone="no"?>
<!DOCTYPE svg PUBLIC "-//W3C//DTD SVG 20010904//EN"
 "http://www.w3.org/TR/2001/REC-SVG-20010904/DTD/svg10.dtd">
<svg version="1.0" xmlns="http://www.w3.org/2000/svg"
 width="733.000000pt" height="450.000000pt" viewBox="0 0 733.000000 450.000000"
 preserveAspectRatio="xMidYMid meet">
<metadata>
Created by potrace 1.15, written by Peter Selinger 2001-2017
</metadata>
<g transform="translate(0.000000,450.000000) scale(0.100000,-0.100000)"
fill="#000000" stroke="none">
<path d="M2190 3689 c-283 -26 -469 -108 -645 -284 -105 -106 -145 -164 -200
-292 -79 -183 -95 -297 -102 -718 -9 -579 18 -781 135 -1009 148 -287 419
-466 771 -507 147 -18 393 -6 512 24 432 111 690 414 749 879 17 134 13 913
-5 1033 -48 319 -183 549 -414 703 -154 103 -303 152 -526 171 -132 12 -151
12 -275 0z m370 -499 c99 -34 139 -57 200 -119 69 -69 106 -145 132 -270 18
-87 19 -130 16 -555 -3 -403 -6 -469 -21 -521 -75 -254 -253 -376 -552 -376
-311 0 -501 140 -560 411 -12 58 -17 154 -22 415 -10 604 17 759 156 895 64
63 161 114 254 135 95 22 313 14 397 -15z"/>
<path d="M4198 3690 c-99 -17 -172 -83 -188 -170 -14 -76 -14 -2413 1 -2479
44 -206 405 -233 491 -36 10 23 14 145 16 523 l3 492 520 0 519 0 0 -471 c0
-322 4 -485 12 -516 26 -105 140 -171 275 -160 86 7 147 39 190 101 l33 48 0
1254 c0 1364 3 1286 -56 1348 -45 47 -108 69 -195 69 -131 -1 -221 -58 -248
-158 -7 -26 -11 -210 -11 -542 l0 -503 -520 0 -520 0 0 489 c0 285 -4 510 -10
541 -6 29 -22 69 -36 88 -49 64 -172 100 -276 82z"/>
</g>
</svg>
